<svg width="36" height="36" viewBox="0 0 36 36" fill="none" xmlns="http://www.w3.org/2000/svg">
<g clip-path="url(#clip0_621_2751)">
<rect width="36" height="36" rx="4.09091" fill="white"/>
<g filter="url(#filter0_b_621_2751)">
<rect width="36" height="36" transform="matrix(1 0 0 -1 0 36)" fill="white" fill-opacity="0.24"/>
<rect width="36" height="36" transform="matrix(1 0 0 -1 0 36)" fill="#181818"/>
</g>
<path d="M7.98668 23.9657V12.3951H9.92316V17.2644H15.4031V12.3951H17.3316V23.9657H15.4031V19.0803H9.92316V23.9657H7.98668ZM23.8671 24.2068C23.0207 24.2068 22.2573 24.0594 21.577 23.7648C20.9021 23.4702 20.345 23.0497 19.9057 22.5033C19.4718 21.9515 19.1959 21.298 19.0781 20.5427L21.0869 20.2374C21.2583 20.923 21.6092 21.4534 22.1395 21.8283C22.6752 22.2033 23.2912 22.3908 23.9876 22.3908C24.4001 22.3908 24.7884 22.3265 25.1527 22.198C25.517 22.0694 25.8116 21.8819 26.0366 21.6355C26.2669 21.3891 26.3821 21.0864 26.3821 20.7275C26.3821 20.5668 26.3553 20.4195 26.3017 20.2856C26.2482 20.1463 26.1678 20.0231 26.0607 19.916C25.9589 19.8088 25.825 19.7124 25.6589 19.6267C25.4982 19.5356 25.3107 19.458 25.0964 19.3937L22.1074 18.5098C21.8502 18.4348 21.5717 18.3357 21.2717 18.2125C20.9771 18.084 20.6958 17.9099 20.428 17.6902C20.1655 17.4652 19.9486 17.1813 19.7772 16.8385C19.6111 16.4903 19.5281 16.0618 19.5281 15.5529C19.5281 14.8083 19.7156 14.1842 20.0905 13.6807C20.4709 13.1718 20.9798 12.7915 21.6172 12.5397C22.26 12.2879 22.9725 12.1647 23.7546 12.1701C24.5474 12.1754 25.2545 12.312 25.8759 12.5799C26.4972 12.8423 27.0168 13.2254 27.4347 13.7289C27.8525 14.2324 28.1471 14.8404 28.3185 15.5529L26.2374 15.9145C26.1517 15.5073 25.9857 15.1618 25.7393 14.8779C25.4982 14.5887 25.2009 14.369 24.8474 14.219C24.4992 14.069 24.1269 13.9887 23.7305 13.978C23.3448 13.9726 22.9859 14.0315 22.6538 14.1548C22.327 14.2726 22.0618 14.444 21.8583 14.669C21.6601 14.894 21.561 15.1565 21.561 15.4565C21.561 15.7404 21.6467 15.9734 21.8181 16.1555C21.9895 16.3323 22.2011 16.4742 22.4529 16.5814C22.71 16.6832 22.9698 16.7689 23.2323 16.8385L25.3054 17.417C25.5893 17.492 25.908 17.5938 26.2615 17.7224C26.6151 17.8509 26.9552 18.0304 27.282 18.2607C27.6088 18.4911 27.8766 18.7937 28.0855 19.1687C28.2998 19.5437 28.4069 20.0204 28.4069 20.599C28.4069 21.1989 28.281 21.7266 28.0293 22.1819C27.7829 22.6319 27.4481 23.0068 27.0249 23.3068C26.6017 23.6068 26.1169 23.8318 25.5705 23.9818C25.0295 24.1318 24.4617 24.2068 23.8671 24.2068Z" fill="white"/>
</g>
<defs>
<filter id="filter0_b_621_2751" x="-13.5243" y="-13.5243" width="63.0486" height="63.0486" filterUnits="userSpaceOnUse" color-interpolation-filters="sRGB">
<feFlood flood-opacity="0" result="BackgroundImageFix"/>
<feGaussianBlur in="BackgroundImageFix" stdDeviation="6.76216"/>
<feComposite in2="SourceAlpha" operator="in" result="effect1_backgroundBlur_621_2751"/>
<feBlend mode="normal" in="SourceGraphic" in2="effect1_backgroundBlur_621_2751" result="shape"/>
</filter>
<clipPath id="clip0_621_2751">
<rect width="36" height="36" rx="4.09091" fill="white"/>
</clipPath>
</defs>
</svg>
