<svg width="32" height="32" viewBox="0 0 32 32" fill="none" xmlns="http://www.w3.org/2000/svg">
<rect width="32" height="32" rx="11.52" fill="#1087FF" fill-opacity="0.18"/>
<path d="M22.4 11V9.39999C22.4 8.51759 21.6824 7.79999 20.8 7.79999H10.4C9.0768 7.79999 8 8.87679 8 10.2V19.8C8 21.5608 9.4352 22.2 10.4 22.2H22.4C23.2824 22.2 24 21.4824 24 20.6V12.6C24 11.7176 23.2824 11 22.4 11ZM20.8 18.2H19.2V15H20.8V18.2ZM10.4 11C10.194 10.9908 9.99952 10.9025 9.85702 10.7534C9.71452 10.6044 9.63499 10.4062 9.63499 10.2C9.63499 9.9938 9.71452 9.79555 9.85702 9.64653C9.99952 9.49751 10.194 9.4092 10.4 9.39999H20.8V11H10.4Z" fill="#1087FF"/>
</svg>
